<svg xmlns="http://www.w3.org/2000/svg" id="Layer_1" viewBox="0 0 850 850"><style>.st0{fill:#ffeec8}.st1{fill:#a9d7f3}.st3{fill:#7a7878}.st4{fill:none;stroke:#231f20;stroke-width:14;stroke-linecap:round;stroke-miterlimit:10}</style><path d="m437.8 174.8-2.5-.3-2.5-.5-2.5-.5-2.3-.7-2.5-.8-2.2-1.2-2-1-2.3-1.3-4-3.2-4-3.5-3.5-4-3.2-4.3-2.8-4.7-2.5-5.3-2-5.2-1.5-5.8-1.2-6-1-6.2-.3-6.5.3-6.5.7-6.5 1-6.3 1.5-6.2 2-5.8L401 77l2.8-5.2L407 67l3.3-4.2 3.7-4 4-3.5 4.3-3 4.5-2.3 4.5-2 2.2-.7 2.5-.5 2.5-.5 2.5-.3h4.8l2.5.3 2.5.5 2.5.5 2.2.7 2.3.8 2.2 1 4.5 2.5 4 3 3.8 3.5 3.5 4L479 67l2.8 4.8 2.5 5.2 2.2 5.5 1.5 5.8 1.3 6 1 6.2.2 6.3-.2 6.7-.3 3.8-.5 3.7-.7 3.8-.8 3.5-1 3.5-1 3.5-1.2 3.2-1.3 3.3-1.5 3-1.5 3-1.7 3-2 2.7-1.8 2.5-2.2 2.5-2 2.3-2.3 2.2-3.2 2.8-3.8 2.5-3.7 2.2-3.8 1.5-4 1.5-4 .8-4 .5z" class="st0"/><path d="m381 300.5-57-1.7 1-12.8 1.5-12.2 1.5-11.5 2-11.3 4.3-22.7 2.2-12 2.3-12.5 4.2-12.3 1.8-2.5 1.5-2.2 2-2.3 1.7-2.2 4.3-4 4.5-3.5 4.5-3.3 4.7-2.7 5-2.5 4.5-2.3 4.5-2 4.3-1.5 7.2-2.2 5-1.3 1.8-.5 4-3 3.2 4.3 3.5 4 4 3.5 4 3.2 2.3 1.3 2 1 2.2 1.2 2.5.8 2.3.7 2.5.5 2.5.5 2.5.3h4.2l4-.5 4-.8 4-1.5 3.8-1.5 3.7-2.2 3.8-2.5 3.2-2.8 5.3 6.5 4.5 6 4.7 6.8 5.3 7.7 5 7.8 2 4 2 3.7 1.7 3.5 1.5 3.5 1.3 4.8 1.2 6 1.3 7.2 1 8 1 9.3.7 9.7 1.3 21.8 1.2 26.7.5 27.5.3 27.5v25.5l-.3 20-.5 16.5-.5 12.5-.5 4.5-.2 3-14.5.8-12.3.7v-.2l-74-.5-1.2.5-2.3-4.3-2.2-5.5-3.5-10-4.3-12.2-8.5-26.8-10.2-32z" class="st1"/><path d="m460.5 777.8 5.5 3.7 4.8 3 7.5 4.5 2.5 1.8 1.7 1.7.8.8.2 1 .3 1-.3 1-.5 1.7-1 1.8-1.5 1.5-2 1.2-2.2 1.3-2.8 1-2.7.5-3.3.5-3.5.2h-3.7l-4-.2-4-.8-4.3-.7-4-1.3-4.2-1.7-4.5-2-7.5-3.5-5.8-2.3-4.5-1.2-3.5-.5h-6l-3.5.2-4-.2-2.7-.3-2.3-.5-2.5-.7-2-.8-2-.7-1.7-1-1.8-1-1.5-1.3-1.2-1.2-1.3-1.3-2-3-1.5-3-1.2-3-1-3.5-.5-3.2-.3-3.3v-8.7l.3-4.5 57.7 9.7 14.3 8.5 7.2 4.5zm-176-122.5 30 46.7-9.2 18.3-7.8 15-6 12.2-2.7 6-2 5.3-3 8-1.5 3-1.3 2-.7.7-1 .5-.8.3-1.2.2-1.8-.2-1.7-.8-1.8-1.2-1.7-1.8-1.5-2-1.5-2.5-1.3-2.7-1-3.3-.7-3.2-.8-3.8-.2-3.7v-8.5l.5-4.3 1-4.5 1.2-4.5 1.3-4.5.7-4 .5-3.7v-6.5l-.2-2.8-.5-2.7-.5-2.5-1.5-4.5-1.5-4.3-1.3-4.2-.5-2.3-.2-2.2-.3-5V673l.5-3.5 1-3.2 1-2.5 1.3-2.3 1.5-1.7 1.5-1.3 1.7-1 2-.7 2-.5 2-.5 4-.3z" style="fill:#231f20"/><path d="m433 760.5-57.7-9.7 10.7-96-.2-.5 78-53 .2.2-15.5 84-13.7 75.3zm60.8-314-10.8 119-.2-.2.2-4.3.3-4-.3-6.7-.2-4.5V544l-3-20.2-2.3-15-3-22.3-6.2-41.2 13.2-.8 12.3-.7z" class="st3"/><path d="m468.3 445.3 6.2 41.2 3 22.3 2.3 15 3 20.2v1.8l.2 4.5.3 6.7-.3 4-.2 4.3-.8 4.7-.7 4.8-1 4.5-1.5 4.5-2 4.2-1 2-1.3 2-1.5 1.8-1.2 1.5-1.8 1.5-1.7 1.5-4.5 3-78 53-71.3 47.7-30-46.7-11.2-17.3 133-89.7-2.3-3.5-6.2-9.8-8.5-14.5-4.8-8.5-4.7-9-5-9.5.7-.5 2.3 3.5 1 1.5 1.2 1.3 2.5 1.7 2.8 1.8 3 1.2 3.2 1.3 3.5 1 3.8.5 3.5.2 3.7-.5 3.3-.7 1.7-.8 1.5-.7 1.3-.8 1.5-1.2 1-1.3 1.2-1.5 1-1.5.8-1.7.7-2.3.5-2 .3-2.5.2-2.7-.2-2.8-.3-3.2-1.2-9-1.5-7-.8-2.8-.7-2.2-1-2-.8-1.8-2-3-2-2.5-2-2.7-2.2-3.5 1.2-.5 74 .5v.2z" class="st3"/><path d="m585.3 439 .7 3 .5 2.8.5 2.5v4.7l-.5 2.3-.2 1.7-.8 2-.7 1.5-1 1.5-1.3 1.3-1.2 1.2-1.3 1-1.5 1-3.2 1.3-3.3 1-3.7.5h-3.5l-3.8-.3-3.5-.5-3.2-.7-3-1.3-2.5-1.2-1.3-.8-1-1-2.2-2.2-2-3-1.8-3.3-1.5-3.7-1.5-3.8-1.2-4-1.3-4-2-7.5-1.2-6.2-1-6.3-2-3.7-3.8-7-5.2-9.5-3.3-5.8-3.7-6h-2.5V361l-.3-27.5-.5-27.5-1.2-26.7 8.5 21.2 14.5 35.3 7.7 18.7 7.8 17.5 6.5 14.5 3 5.8 2.2 4.5 2.3 3.5 2 2.7 1.7 2.5 1.8 2 3.2 3 3 2.8 1.5 1.5 1.5 1.7 1.5 2 1.5 2.8 1.5 3.2 1.8 4 1.7 4.8zm-224.8 4.3-33.7-79.8-3.3-33v-16.7l.3-7.8.2-7.2 57 1.7-5.7 53 10.2 32 8.5 26.8 4.3 12.2 3.5 10 2.2 5.5 2.3 4.3 2.2 3.5 2 2.7 2 2.5 2 3 .8 1.8 1 2 .7 2.2.8 2.8 1.5 7 1.2 9 .3 3.2.2 2.8-.2 2.7-.3 2.5-.5 2-.7 2.3-.8 1.7-1 1.5-1.2 1.5-1 1.3-1.5 1.2-1.3.8-1.5.7-1.7.8-3.3.7-3.7.5-3.5-.2-3.8-.5-3.5-1-3.2-1.3-3-1.2-2.8-1.8-2.5-1.7-1.2-1.3-1-1.5-2.3-3.5-1.5-2.7-1.2-3.3-2.5-6.5-2-7-1.5-6.7-1.3-6-1-5-.7-4.5z" class="st0"/><path d="m350.5 443.3-16.2-.3-7.5-79.5 33.7 79.8z" class="st1"/><path d="m468.3 445.3 6.2 41.2 3 22.3 2.3 15 3 20.2v1.8l.2 4.5.3 6.7-.3 4-.2 4.3-.8 4.7-.7 4.8-1 4.5-1.5 4.5-2 4.2-1 2-1.3 2-1.5 1.8-1.2 1.5-1.8 1.5-1.7 1.5-4.5 3-78 53-71.3 47.7-30-46.7-11.2-17.3 133-89.7-2.3-3.5-6.2-9.8-8.5-14.5-4.8-8.5-4.7-9-5-9.5-6.3-11-4-6.7-4.5-6.8-1.5-2.7-1.7-4.3-6.3-18.7-.2-.8" class="st4"/><path d="m314.5 702-9.2 18.3-7.8 15-6 12.2-2.7 6-2 5.3-3 8-1.5 3-1.3 2-.7.7-1 .5-.8.3-1.2.2-1.8-.2-1.7-.8-1.8-1.2-1.7-1.8-1.5-2-1.5-2.5-1.3-2.7-1-3.3-.7-3.2-.8-3.8-.2-3.7v-8.5l.5-4.3 1-4.5 1.2-4.5 1.3-4.5.7-4 .5-3.7v-6.5l-.2-2.8-.5-2.7-.5-2.5-1.5-4.5-1.5-4.3-1.3-4.2-.5-2.3-.2-2.2-.3-5V673l.5-3.5 1-3.2 1-2.5 1.3-2.3 1.5-1.7 1.5-1.3 1.7-1 2-.7 2-.5 2-.5 4-.3 4-.2 1.3-.3m118.5-501.5-2.8-4.7-2.5-5.3-2-5.2-1.5-5.8-1.2-6-1-6.2-.3-6.5.3-6.5.7-6.5 1-6.3 1.5-6.2 2-5.8L401 77l2.8-5.2L407 67l3.3-4.2 3.7-4 4-3.5 4.3-3 4.5-2.3 4.5-2 2.2-.7 2.5-.5 2.5-.5 2.5-.3h4.8l2.5.3 2.5.5 2.5.5 2.2.7 2.3.8 2.2 1 4.5 2.5 4 3 3.8 3.5 3.5 4L479 67l2.8 4.8 2.5 5.2 2.2 5.5 1.5 5.8 1.3 6 1 6.2.2 6.3-.2 6.7-.3 3.8-.5 3.7-.7 3.8-.8 3.5-1 3.5-1 3.5-1.2 3.2-1.3 3.3-1.5 3-1.5 3-1.7 3-2 2.7-1.8 2.5-2.2 2.5-2 2.3-2.3 2.2-3.2 2.8-3.8 2.5-3.7 2.2-3.8 1.5-4 1.5-4 .8-4 .5h-4.2l-2.5-.3-2.5-.5-2.5-.5-2.3-.7-2.5-.8-2.2-1.2-2-1-2.3-1.3-4-3.2-4-3.5-3.5-4zm104 125.8 1.2 26.7.5 27.5.3 27.5v25.5l-.3 20-.5 16.5-.5 12.5-.5 4.5-.2 3-14.5.8-12.3.7-13.2.8H466" class="st4"/><path d="m468.3 162.5.2.5 5.3 6.5 4.5 6 4.7 6.8 5.3 7.7 5 7.8 2 4 2 3.7 1.7 3.5 1.5 3.5 1.3 4.8 1.2 6 1.3 7.2 1 8 1 9.3.7 9.7 1.3 21.8m-108-122.8-1.8.5-5 1.3-7.2 2.2-4.3 1.5-4.5 2-4.5 2.3-5 2.5-4.7 2.7-4.5 3.3-4.5 3.5-4.3 4-1.7 2.2-2 2.3-1.5 2.2-1.8 2.5-4.2 12.3-2.3 12.5-2.2 12L330 251l-2 11.3-1.5 11.5L325 286l-1 12.8-.2 7.2-.3 7.8v16.7l.8 14 1 15.5 1.5 3.5 33.7 79.8 3.3 8 .7 4.5 1 5 1.3 6 1.5 6.7 2 7 2.5 6.5 1.2 3.3 1.5 2.7 2.3 3.5 1 1.5 1.2 1.3 2.5 1.7 2.8 1.8 3 1.2 3.2 1.3 3.5 1 3.8.5 3.5.2 3.7-.5 3.3-.7 1.7-.8 1.5-.7 1.3-.8 1.5-1.2 1-1.3 1.2-1.5 1-1.5.8-1.7.7-2.3.5-2 .3-2.5.2-2.7-.2-2.8-.3-3.2-1.2-9-1.5-7-.8-2.8-.7-2.2-1-2-.8-1.8-2-3-2-2.5-2-2.7-2.2-3.5-2.3-4.3-2.2-5.5-3.5-10-4.3-12.2-8.5-26.8-10.2-32 5.7-53 4.3-40.2" class="st4"/><path d="m512.8 386.5 3.7 6 3.3 5.8 5.2 9.5 3.8 7 2 3.7 1 6.3 1.2 6.2 2 7.5 1.3 4 1.2 4 1.5 3.8 1.5 3.7 1.8 3.3 2 3 2.2 2.2 1 1 1.3.8 2.5 1.2 3 1.3 3.2.7 3.5.5 3.8.3h3.5l3.7-.5 3.3-1 3.2-1.3 1.5-1 1.3-1 1.2-1.2 1.3-1.3 1-1.5.7-1.5.8-2 .2-1.7.5-2.3v-4.7l-.5-2.5-.5-2.8-.7-3-1.8-5.7-1.7-4.8-1.8-4-1.5-3.2-1.5-2.8-1.5-2-1.5-1.7-1.5-1.5-3-2.8-3.2-3-1.8-2-1.7-2.5-2-2.7-2.3-3.5-2.2-4.5-3-5.8-6.5-14.5-7.8-17.5-7.7-18.7-14.5-35.3-8.5-21.2-.5-1.8m-147 165.8h-10.3l-16.2-.3-7.5-79.5-3.3-33-.2-5m158.2 118.8-74-.5M464 601.5l-15.5 84-13.7 75.3-1.8-.3-57.7-9.7 10.7-96" class="st4"/><path d="m425.3 755.8 7.7 4.7 14.3 8.5 7.2 4.5 6 4.3 5.5 3.7 4.8 3 7.5 4.5 2.5 1.8 1.7 1.7.8.8.2 1 .3 1-.3 1-.5 1.7-1 1.8-1.5 1.5-2 1.2-2.2 1.3-2.8 1-2.7.5-3.3.5-3.5.2h-3.7l-4-.2-4-.8-4.3-.7-4-1.3-4.2-1.7-4.5-2-7.5-3.5-5.8-2.3-4.5-1.2-3.5-.5h-6l-3.5.2-4-.2-2.7-.3-2.3-.5-2.5-.7-2-.8-2-.7-1.7-1-1.8-1-1.5-1.3-1.2-1.2-1.3-1.3-2-3-1.5-3-1.2-3-1-3.5-.5-3.2-.3-3.3v-8.7l.3-4.5m118.5-304.3-10.8 119-.2 2.8M322.3 298.5l1.7.3 57 1.7h1.3" class="st4"/></svg>