<svg xmlns="http://www.w3.org/2000/svg" id="Layer_1" viewBox="0 0 850 850"><style>.st2{fill:#7a7878}.st3{fill:#ffeec8}.st4{fill:#a9d7f3}.st5{fill:none;stroke:#231f20;stroke-width:14;stroke-linecap:round;stroke-miterlimit:10}</style><path d="m441.2 179.8.3 1.5-2.8 2.5-2.5 2.7-2.2 2.8-2.3 3-1.7 3.2-1.5 3.3-1.3 3.2-1 3.8-2.7 12-3.3 13-3.5 14.7-4 16.5-4.2 18.5-2 10-2 10.8-1.8 11.2-2 12-1.7 12.8-1.5 13.2 9.5 45.8 10.5 51-1.3 6-1 6.5-1 7.5-.2 4.2-.3 4v8l.5 3.8.8 3.5 1.2 3 .5 1.2.8 1 2 2.3 2.2 2 2.5 1.7 3 2 3 1.5 3.3 1.3 3.5.7 3.2.5v.8l-.2 130.7v23.3l-.8 1.5-.5 1.7-.2 1.8-.3 2 .3 2.2.2 2.5.3 2.5.7 3v39l-232 25L441.5 71.3z" style="fill:#ffffc2"/><path d="m617.5 762.3 5.7 3.2 4.8 2.8 7.7 4 2.8 1.5 1.7 1.5.8 1 .5.7.2 1v1l-.5 2-1 1.5-1.5 1.8-1.7 1.5-2.3 1.2-2.5 1-3 1-3 .8-3.5.5-3.7.2-4-.2-4-.3-4-.7-4.5-.8-4.3-1.5-4.5-1.5-7.2-3.2-5.3-2-3.5-1-2.2-.3-2 .3-1.8.2-2.5.3h-3.7l-5.3-.3-4.5-1-3.7-1.2-3.3-1.8-2.7-2-2.3-2.2-1.7-2.5-1.5-2.5-1-2.8-.8-2.7-.5-2.8-.5-2.7-.2-5.3v-4.2l43-4.8.2 1.8 14 7.2 12 6.3 5.8 3.2zM440 662.8l1.2-2.3 2-1.7 2-1.5 2.3-1 2.2-1 2.5-1 4.5-1.5 30.3 24.5-4.3 20-3.2 16.2-2.8 13.5-1 6.5-.5 5.5-.7 8.8-.5 3-1 2.2-.5 1-.5.8-1 .5-1 .5-1.8.2-2-.2-2-.8-2-1.2-2-1.5-2-2-2-2.3-1.7-2.7-1.8-3.3-1.5-3.2-1.5-3.5-1-4-1-4.3-.7-4.2-.3-4.5V700l-.2-3.5-.8-2.5-.7-1.5-1-1.7-1.3-2.3-1.2-3.5-1.8-5-.7-3-.3-2.5-.2-2.5-.3-2.2.3-2 .2-1.8.5-1.7z" style="fill:#231f20"/><path d="m590.7 740-10.2 1-43 4.8-17.3-109.3L556 592l15.2-19 10.5 90zm-59.2-221.7-32.8 43.5-.5-.3-9.5-78.5.3-.2 3 3 3 2.7 3 2.3 3 2.2 8.2 5.3 6.8 5 5.2 4.2 4 3.8 3 3 1.8 2.2z" class="st2"/><path d="M571.2 573 556 592l-35.8 44.5-26.5 32.8-6.7 8-30.3-24.5-16.2-13.3 58.2-77.7 32.8-43.5-1.5-1.8-1.8-2.2-3-3-4-3.8-5.2-4.2-6.8-5-8.2-5.3-3-2.2-3-2.3-3-2.7-3-3-3-3.3-3-3.7-2.8-3.8-2.5-4-2.5-4.2-2.2-4.3-2-4.5-2-4.5-1.8-4.7-1.5-4.5-1.2-4.8-1-4.5-.5-4.7-.5-4.5V414l.2-1.2 86.8 3 25.7 37.2 19.3 27.8 8.2 11.5 7.3 9.5.7 2 .8 2 .7 2.7.5 3 .3 3.3-.3 1.7-.2 1.8-.5 1.7-.5 1.5-2.3 3.8-2.7 4.5-3.8 5-4.5 5.7-11.7 14.3z" class="st2"/><path d="m600.5 423.3 2.5 3.7 2.7 4 3 4.8 2.8 5.7 1.5 3 1 3 .7 3 .5 2.8.3 3v2.7l-.8 3.8-1 4-1.2 3.5-.8 1.7-1 1.5-1.2 1.3-1 1.2-1.5 1.3-1.5.7-1.8.5-2 .5h-2.2l-2.3-.2-2.7 2-19.3-27.8-25.7-37.2 11.5.5 36.2 3 3.8.5zm-32.3-305.8v3.5l-.2 3.5-.5 3.5-.5 3.5-.8 3.3-.7 3-1 3.2-1 3-1.3 3-1.5 2.8-1.5 2.7-1.5 2.5-1.7 2.5-1.8 2.3-2 2-2 2-2.5 2.5-3 2-2.7 1.7-3.3 1.5-3 1.3-3.2.7-3.5.8h-5.8l-2.2-.3-2.5-.5-2.3-.5-2.2-.7-2.3-1-2-1-2.2-1.3-4-2.7-3.8-3.3-3.5-4-3-4.2-2.2-3.8-2.3-4.2-1.7-4.3-1.5-4.5-1.3-4.7-.7-5-.5-5.3-.3-5.2.3-5.8.5-5.5 1-5.5 1.5-5.2 1.7-5 2-4.8 2.5-4.2 2.8-4 3-3.8 3.2-3.2L505 68l3.5-2.5 4-2 4.2-1.2 4.3-1 4.2-.3 4.5.3 4.3 1 4 1.2 4 2 3.7 2.3 3.5 2.7 3.3 3.3 3 3.7 2.7 4 2.5 4.3 2.3 4.7 1.7 5 1.5 5.3 1 5.2.8 5.8z" class="st3"/><path d="m597.2 419.3-36.2-3-11.5-.5-86.8-3-13.7-.5-1 .2-4.8-40-2.2-20 28-89L490.2 157l3-2.2 3 4.2 3.5 4 3.8 3.3 4 2.7 2.2 1.3 2 1 2.3 1 2.2.7 2.3.5 2.5.5 2.2.3h5.8l3.5-.8 3.2-.7 3-1.3 3.3-1.5 2.7-1.7 3-2 2.5-2.5 1.8.7 6.2 3.5 6.8 4 8 5 4.2 3 4 3 4.3 3.3 3.7 3.5 3.5 3.2 3 3.5 2.5 3.5 1 1.8.8 1.7 1.2 3.3 1.3 3.5 1 4.2 1 4.3 1.5 10 1.2 11 1 11.7.8 12.5.5 12.8.2 13.2v12.8l-.2 12.7-.5 23.3-1 18.7-.8 12.8h-.2l-2 18.7-2 16-2 14.8z" class="st4"/><path d="M490.2 157 469 263.5l-28 89 2.2 20 4.8 40 1.7 13.5 1.5 11-33.7 10.3-10.5-51-9.5-45.8 1.5-13.2 1.7-12.8 2-12 1.8-11.2 2-10.8 2-10 4.2-18.5 4-16.5 3.5-14.7 3.3-13 2.7-12 1-3.8 1.3-3.2 1.5-3.3 1.7-3.2 2.3-3 2.2-2.8 2.5-2.7 2.8-2.5 3.7-3 4-2.8 4-2.7 4-2.3 4-2.2 4.3-2 7.5-3.5 7-2.5 5.2-1.8z" class="st4"/><path d="m451.2 437 .8 4 .7 3.5 1 2.8 1 2.5 1.8 4 2 3.7.7 1.8.8 2.2.5 2.5.5 3 .2 3.5v9.5l-.5 5.8-.2 3.2-.8 3-.5 2.5-1 2.5-1 2-1 2-1.2 1.5-1.3 1.5-1.5 1-1.5 1-1.5.8-1.7.7-1.8.3-1.7.2-1.8.3-2-.3-3.2-.5-3.5-.7-3.3-1.3-3-1.5-3-2-2.5-1.7-2.2-2-2-2.3-.8-1-.5-1.2-1.2-3-.8-3.5-.5-3.8v-8l.3-4 .2-4.2 1-7.5 1-6.5 1.3-6z" class="st3"/><path d="M571.2 572.3v.7l10.5 90 9 77-10.2 1-43 4.8-17.3-109.3-.2-.7m60.7 107 14 7.2 12 6.3 5.8 3.2 5 2.8 5.7 3.2 4.8 2.8 7.7 4 2.8 1.5 1.7 1.5.8 1 .5.7.2 1v1l-.5 2-1 1.5-1.5 1.8-1.7 1.5-2.3 1.2-2.5 1-3 1-3 .8-3.5.5-3.7.2-4-.2-4-.3-4-.7-4.5-.8-4.3-1.5-4.5-1.5-7.2-3.2-5.3-2-3.5-1-2.2-.3-2 .3-1.8.2-2.5.3h-3.7l-5.3-.3-4.5-1-3.7-1.2-3.3-1.8-2.7-2-2.3-2.2-1.7-2.5-1.5-2.5-1-2.8-.8-2.7-.5-2.8-.5-2.7-.2-5.3v-4.2" class="st5"/><path d="m549.5 415.8 25.7 37.2 19.3 27.8 8.2 11.5 7.3 9.5.7 2 .8 2 .7 2.7.5 3 .3 3.3-.3 1.7-.2 1.8-.5 1.7-.5 1.5-2.3 3.8-2.7 4.5-3.8 5-4.5 5.7-11.7 14.3-15.3 18.2-15.2 19-35.8 44.5-26.5 32.8-6.7 8-30.3-24.5-16.2-13.3 58.2-77.7 32.8-43.5-1.5-1.8-1.8-2.2-3-3-4-3.8-5.2-4.2-6.8-5-8.2-5.3-3-2.2-3-2.3-3-2.7-3-3-3-3.3-3-3.7-2.8-3.8-2.5-4-2.5-4.2-2.2-4.3-2-4.5-2-4.5-1.8-4.7-1.5-4.5-1.2-4.8-1-4.5-.5-4.7-.5-4.5V414" class="st5"/><path d="m487 677.3-4.3 20-3.2 16.2-2.8 13.5-1 6.5-.5 5.5-.7 8.8-.5 3-1 2.2-.5 1-.5.8-1 .5-1 .5-1.8.2-2-.2-2-.8-2-1.2-2-1.5-2-2-2-2.3-1.7-2.7-1.8-3.3-1.5-3.2-1.5-3.5-1-4-1-4.3-.7-4.2-.3-4.5V700l-.2-3.5-.8-2.5-.7-1.5-1-1.7-1.3-2.3-1.2-3.5-1.8-5-.7-3-.3-2.5-.2-2.5-.3-2.2.3-2 .2-1.8.5-1.7.8-1.5 1.2-2.3 2-1.7 2-1.5 2.3-1 2.2-1 2.5-1 4.5-1.5.3-.3m36.2-497.7L491 151l-2.3-4.2-1.7-4.3-1.5-4.5-1.3-4.7-.7-5-.5-5.3-.3-5.2.3-5.8.5-5.5 1-5.5 1.5-5.2 1.7-5 2-4.8 2.5-4.2 2.8-4 3-3.8 3.2-3.2L505 68l3.5-2.5 4-2 4.2-1.2 4.3-1 4.2-.3 4.5.3 4.3 1 4 1.2 4 2 3.7 2.3 3.5 2.7 3.3 3.3 3 3.7 2.7 4 2.5 4.3 2.3 4.7 1.7 5 1.5 5.3 1 5.2.8 5.8.2 5.7v3.5l-.2 3.5-.5 3.5-.5 3.5-.8 3.3-.7 3-1 3.2-1 3-1.3 3-1.5 2.8-1.5 2.7-1.5 2.5-1.7 2.5-1.8 2.3-2 2-2 2-2.5 2.5-3 2-2.7 1.7-3.3 1.5-3 1.3-3.2.7-3.5.8h-5.8l-2.2-.3-2.5-.5-2.3-.5-2.2-.7-2.3-1-2-1-2.2-1.3-4-2.7-3.8-3.3-3.5-4zm58.8 9.7 6.2 3.5 6.8 4 8 5 4.2 3 4 3 4.3 3.3 3.7 3.5 3.5 3.2 3 3.5 2.5 3.5 1 1.8.8 1.7 1.2 3.3 1.3 3.5 1 4.2 1 4.3 1.5 10 1.2 11 1 11.7.8 12.5.5 12.8.2 13.2v12.8l-.2 12.7-.5 23.3-1 18.7-.8 12.8-.2 1.7M490.2 157l-5 1.5-5.2 1.8-7 2.5-7.5 3.5-4.3 2-4 2.2-4 2.3-4 2.7-4 2.8-3.7 3-2.8 2.5-2.5 2.7-2.2 2.8-2.3 3-1.7 3.2-1.5 3.3-1.3 3.2-1 3.8-2.7 12-3.3 13-3.5 14.7-4 16.5-4.2 18.5-2 10-2 10.8-1.8 11.2-2 12-1.7 12.8-1.5 13.2 9.5 45.8 10.5 51-1.3 6-1 6.5-1 7.5-.2 4.2-.3 4v8l.5 3.8.8 3.5 1.2 3 .5 1.2.8 1 2 2.3 2.2 2 2.5 1.7 3 2 3 1.5 3.3 1.3 3.5.7 3.2.5 2 .3 1.8-.3 1.7-.2 1.8-.3 1.7-.7 1.5-.8 1.5-1 1.5-1 1.3-1.5 1.2-1.5 1-2 1-2 1-2.5.5-2.5.8-3 .2-3.2.5-5.8v-9.5l-.2-3.5-.5-3-.5-2.5-.8-2.2-.7-1.8-2-3.7-1.8-4-1-2.5-1-2.8-.7-3.5-.8-4-1.5-11-1.7-13.5-4.8-40-2.2-20 28-89" class="st5"/><path d="m578.2 239.5-2.7 177.3-14.5-.5-11.5-.5-86.8-3-13.7-.5m158-42-2 18.7-2 16-2 14.8-.5 3.5 2.5 3.7 2.7 4 3 4.8 2.8 5.7 1.5 3 1 3 .7 3 .5 2.8.3 3v2.7l-.8 3.8-1 4-1.2 3.5-.8 1.7-1 1.5-1.2 1.3-1 1.2-1.5 1.3-1.5.7-1.8.5-2 .5h-2.2l-2.3-.2M488.7 483l9.5 78.5m99-142.2-36.2-3M439.7 677v42l-232 25m232.5-235.2-.2 130.7V666m1.5-594.7-.3 108.5m-23.7 267.5 33.7-10.3" class="st5"/></svg>