<svg xmlns="http://www.w3.org/2000/svg" id="Layer_1" viewBox="0 0 850 850"><style>.st1{fill:#ffeec8}.st2{fill:none;stroke:#231f20;stroke-width:14;stroke-linecap:round;stroke-miterlimit:10}</style><path d="M318 400.3h275v358.2H236.5V400.3z" style="fill:#a8d7f4"/><path d="m425.8 228-1.5 4.3-3 7.2h-.3l1.8-6.5.5-3 .5-2.7v-5l-.3-2.3-.7-2-.8-1.7-1-1.5-1.2-1.3-1.5-1.2-1.8-1-2.2-.8-2.3-.7-2.7-.3-1.5-.2h-1.5l-1.3.2-1.2.5-1.3.5-1 1-.7.8-1 1.2-1.5 2.8-1.5 3.5-1.3 4-1.2 4.7-2.3 6-3.5 9.8v-4l-.5-3.5-.7-3.3-1.3-2.7-1.5-2.3-1-1-1-1-1-.7-1.2-.5-1.3-.5-1.5-.3h-4l-1.5.5-1.2.5-1 .5-1.3 1-1 1-1.2 1.5-1 1.5-2 3.8-2 5-2 6-2 6.5-2 5-3.3 8-1.5 3.7-1.5 3.8-1.5 4.7-1.5 5.8-.7 4-.3 3.7h-.2l-1-8.7-1-9.5-.8-11.8-.2-6.2v-13.3l.2-6.5.8-6.5.7-6 1.3-5.7 1.5-5.3 1.7-4.7 2-4.5 4-8.3 4-7.5 4.3-7.5 4-7.2 3.7-7.5 1.8-4.3 1.5-4.2 1.5-4.3 1.2-4.7 1-4.8 1-5.7.8-6.5.5-7.3.5-7.7-.3-8.3-.5-8.2-.5-4.3-.5-4h127.8l-2.3 13.8-2.5 16.5-2.2 17.2-.8 8.8-.5 8-.2 3.7.2 4 .3 3.8.2 3.5.8 3.5.7 3.5 1.8 6.7 2.2 6.3 2.5 5.7 2.8 5.5 3 5 3 4.3 2.7 4 2.8 3.5 2.5 2.7 3.5 4 1.5 1.3 3.5 3.2 3.7 3.3 4 3 4 3 4 2.7 4.3 2.5 4.5 2.5 4.2 2 4.5 2 4.3 1.8 4.2 1.2 4.3 1.3 4.2.7 4 .5 4 .3 3.8-.3h3.2l3 .5 2.8.8 2.7 1.2 2.3 1.8 2.2 2 1.8 2.2 1.5 2.3 1 2.7 1 2.8.2 2.7v2.8l-.2 2.7-1 2.8-1.3 2.5-2 2.5-2 2.2-2.2 2-2.5 2-2.8 2-2.5 1.5-3 1.5-3 1.3-3.2 1-3.3.7-3.5.5-3.5.3-3.7-.3-4-.5-4.3-.7-4-1.3-4.5-1.5-8.2-3.2-7-2-5.8-1.3-4.5-.5-3.2-.2h-2.5l-1.8.2-3.5.8-3.7 1-3.5 1.7-3.5 2.3-2 1.7-1.5 1.8-1.3 1.7-1 2-1 2.3-.5 2.5-1 5.2-.7 6-1.3 7.3-1 4-1 4.2-1.5 4.5-1.7 5-3-5-3.3-4.7-3.2-4.5-3.8-4.3-3.7-4.2-4-4-4-3.8-4.3-3.7h-1l1-7.8 1.5-8.5 1-4.7 1-4.5 1.5-5 1.5-5 1-3.5.3-3.8v-2.2l-.3-2-.2-2-.5-2-.8-1.8-1-1.7-1.2-1.8-1.5-1.2-1.5-1.3-2-1-2.3-.7-2.5-.5-2.2-.3h-2l-2 .3-1.5.5 1.2-4 1-3.8.5-3.5.3-3.5v-3l-.5-3-.5-3-1-2.5-1-2.2-1.3-2.3-1.5-1.7-1.5-1.5-1.7-1.5-1.8-1-1.7-.5-2-.5-3.3-.3h-2.5l-1.2.3-1 .5-1 .5-.8.7-.7 1-.8 1-1.5 3-1.5 3.8z" class="st1"/><path d="m487 358.3 2 1.2-1.2 1.8-1.3 1.5-1.2 1-3 2-3 1.7-3.3 1.3-3 1-3 .7-5 .8-.2-.3-2.3.3h2.5l-.7.2-1.8.3h-2.7l-3.3-.3-3.7-1-1.8-.5-2-1-2-1-1.7-1.2-2-1.5-1.5-2-2.3-3-1-1.8-1-2-.7-2-.8-2.2-.5-2.5-.5-2.8-1-5.7-.7-6.8L432 321l-1-15.5 1.8-6 2.2-6.2 4.5-12.3 3.8-10.2 2.5-6.8 1.5-5.5 1.7-4 .8-1.5 1-1 1-1 1-.7 1.5-.5 2-.3h2l2.2.3 2.5.5 2.3.7 2 1 1.5 1.3 1.5 1.2 1.2 1.8 1 1.7.8 1.8.5 2 .2 2 .3 2v2.2l-.3 3.8-1 3.5-1.5 5-1.5 5-1 4.5-1 4.7-1.5 8.5-1 7.8-.2 3.5v1.7l.2 2 .8 2.5 1 2.5 2.7 5.3 3.3 6 7.2 12.2 3.5 6z" class="st1"/><path d="m408.5 353.8-1.2-2.8-1.3-3.2-1-3.5-.7-4-1.5-7.8-1-7.7-.8-6.8-.5-6-.5-9v-3.2l1.5-6 2-7 2.5-7.8 3-8.2 6.5-16.8 5.8-14.5 3-7.2 1.5-4.3 1.2-4.7 1.5-3.8 1.5-3 .8-1 .7-1 .8-.7 1-.5 1-.5 1.2-.3h2.5l3.3.3 2 .5 1.7.5 1.8 1 1.7 1.5 1.5 1.5 1.5 1.7 1.3 2.3 1 2.2 1 2.5.5 3 .5 3v3l-.3 3.5-.5 3.5-1 3.8-1.2 4-1 .7-1 1-1 1-.8 1.5-1.7 4-1.5 5.5-2.5 6.8-3.8 10.2-4.5 12.3-2.2 6.2-1.8 6 1 15.5 1.3 13.5.7 6.8 1 5.7.5 2.8.5 2.5.8 2.2.7 2 1 2 1 1.8 2.3 3-1.5.7-1 .5-2.5 1-3.8.8-2.2.2-2.5.3-2.5-.3-2.5-.2-2.8-.8-2.5-1.2-2.7-1.8-2.5-2.2-2.3-3z" class="st1"/><path d="m388.5 244.3 3.5-9.8 2.3-6 1.2-4.7 1.3-4 1.5-3.5 1.5-2.8 1-1.2.7-.8 1-1 1.3-.5 1.2-.5 1.3-.2h1.5l1.5.2 2.7.3 2.3.7 2.2.8 1.8 1 1.5 1.2 1.2 1.3 1 1.5.8 1.7.7 2 .3 2.3v5l-.5 2.7-.5 3-1.8 6.5h.3l-5.8 14.5-6.5 16.8-3 8.2-2.5 7.8-2 7-1.5 6v3.2l.5 9 .5 6 .8 6.8 1 7.7 1.5 7.8.7 4 1 3.5 1.3 3.2 1.2 2.8-2 .7-2.7.8-3.3.2H399l-2-.2-1.7-.5-1.8-1-2-1-1.7-1.3-2-1.7-1.8-2.3-1.7-2.5-1.8-3-2.2-5-1.8-6.2-2.2-8.3-1.3-7.7-1-6.8-.5-5.7-.2-4.8-.3-3.5.3-3 1-4.7 1.5-5.5 1.7-6 2-6L384 256z" class="st1"/><path d="m377.5 224.5 1.5.3 1.3.5 1.2.5 1 .7 1 1 1 1 1.5 2.3 1.3 2.7.7 3.3.5 3.5v4L384 256l-4.5 12.8-2 6-1.7 6-1.5 5.5-1 4.7-.3 3 .3 3.5.2 4.8.5 5.7 1 6.8 1.3 7.7 2.2 8.3 1.8 6.2 2.2 5h-.5l-1 .5-2.7.8-2 .5-2.3.2-2.2.3-2.5-.3-2.8-.5-2.5-1-2.7-1.7-2.8-2-1.2-1.5-1-1.5-1.3-1.8-1.2-2-1-2-1-2.5-1-2.5-.8-3-.2-.2-1.8-6.5-1.7-7.3-.8-4-.5-4.2-.2-4.3.2-4.5.3-3.7.7-4 1.5-5.8 1.5-4.7 1.5-3.8 1.5-3.7 3.3-8 2-5 2-6.5 2-6 2-5 2-3.8 1-1.5 1.2-1.5 1-1 1.3-1 1-.5 1.2-.5 1.5-.5h1.3z" class="st1"/><path d="m410 353-1.5.8-2 .7-2.7.8-3.3.2H399l-2-.2-1.7-.5-1.8-1-2-1-1.7-1.3-2-1.7-1.8-2.3-1.7-2.5-1.8-3-2.2-5-1.8-6.2-2.2-8.3-1.3-7.7-1-6.8-.5-5.7-.2-4.8-.3-3.5.3-3 1-4.7 1.5-5.5 1.7-6 2-6L384 256l4.5-11.7 3.5-9.8 2.3-6 1.2-4.7 1.3-4 1.5-3.5 1.5-2.8 1-1.2.7-.8 1-1 1.3-.5 1.2-.5 1.3-.2h1.5l1.5.2 2.7.3 2.3.7 2.2.8 1.8 1 1.5 1.2 1.2 1.3 1 1.5.8 1.7.7 2 .3 2.3v5l-.5 2.7-.5 3-1.8 6.5m44 131.8 5-.8 3-.7 3-1 3.3-1.3 3-1.7 3-2 1.2-1 1.3-1.5 1.2-1.8 1.8-3 2.7-6 2.3-5.5 1.7-5 1.5-4.5 1-4.2 1-4 1.3-7.3.7-6 1-5.2.5-2.5 1-2.3 1-2 1.3-1.7 1.5-1.8 2-1.7 3.5-2.3 3.5-1.7 3.7-1 3.5-.8 1.8-.2h2.5l3.2.2 4.5.5 5.8 1.3 7 2 8.2 3.2 4.5 1.5 4 1.3 4.3.7 4 .5 3.7.3 3.5-.3 3.5-.5 3.3-.7 3.2-1 3-1.3 3-1.5 2.5-1.5 2.8-2 2.5-2 2.2-2 2-2.2 2-2.5 1.3-2.5 1-2.8.2-2.7V274l-.2-2.7-1-2.8-1-2.7-1.5-2.3-1.8-2.2-2.2-2-2.3-1.8-2.7-1.2-2.8-.8-3-.5h-3.2l-3.8.3-4-.3-4-.5-4.2-.7-4.3-1.3-4.2-1.2-4.3-1.8-4.5-2-4.2-2-4.5-2.5-4.3-2.5-4-2.7-4-3-4-3-3.7-3.3-3.5-3.2-1.5-1.3-3.5-4-2.5-2.7-2.8-3.5-2.7-4-3-4.3-3-5-2.8-5.5-2.5-5.7-2.2-6.3-1.8-6.7-.7-3.5-.8-3.5-.2-3.5-.3-3.8-.2-4 .2-3.7.5-8 .8-8.8 2.2-17.2 2.5-16.5 2.3-13.8" class="st2"/><path d="m487 358.3-3-5.8-3.5-6-7.2-12.2-3.3-6-2.7-5.3-1-2.5-.8-2.5-.2-2v-1.7l.2-3.5 1-7.8 1.5-8.5 1-4.7 1-4.5 1.5-5 1.5-5 1-3.5.3-3.8v-2.2l-.3-2-.2-2-.5-2-.8-1.8-1-1.7-1.2-1.8-1.5-1.2-1.5-1.3-2-1-2.3-.7-2.5-.5-2.2-.3h-2l-2 .3-1.5.5-1 .7-1 1-1 1-.8 1.5-1.7 4-1.5 5.5-2.5 6.8-3.8 10.2-4.5 12.3-2.2 6.2-1.8 6 1 15.5 1.3 13.5.7 6.8 1 5.7.5 2.8.5 2.5.8 2.2.7 2 1 2 1 1.8 2.3 3 1.5 2 2 1.5 1.7 1.2 2 1 2 1 1.8.5 3.7 1 3.3.3h2.7l1.8-.3.7-.2-.2-.3-2.3.3h2.5" class="st2"/><path d="m440.3 364-1 .5-2.5 1-3.8.8-2.2.2-2.5.3-2.5-.3-2.5-.2-2.8-.8-2.5-1.2-2.7-1.8-2.5-2.2-2.3-3-2-3.5-1.2-2.8-1.3-3.2-1-3.5-.7-4-1.5-7.8-1-7.7-.8-6.8-.5-6-.5-9v-3.2l1.5-6 2-7 2.5-7.8 3-8.2 6.5-16.8 5.8-14.5 3-7.2 1.5-4.3 1.2-4.7 1.5-3.8 1.5-3 .8-1 .7-1 .8-.7 1-.5 1-.5 1.2-.3h2.5l3.3.3 2 .5 1.7.5 1.8 1 1.7 1.5 1.5 1.5 1.5 1.7 1.3 2.3 1 2.2 1 2.5.5 3 .5 3v3l-.3 3.5-.5 3.5-1 3.8-1.2 4-.8 2M382 342l-1 .5-2.7.8-2 .5-2.3.2-2.2.3-2.5-.3-2.8-.5-2.5-1-2.7-1.7-2.8-2-1.2-1.5-1-1.5-1.3-1.8-1.2-2-1-2-1-2.5-1-2.5-.8-3-.2-.2-1.8-6.5-1.7-7.3-.8-4-.5-4.2-.2-4.3.2-4.5.3-3.7.7-4 1.5-5.8 1.5-4.7 1.5-3.8 1.5-3.7 3.3-8 2-5 2-6.5 2-6 2-5 2-3.8 1-1.5 1.2-1.5 1-1 1.3-1 1-.5 1.2-.5 1.5-.5h4l1.5.3 1.3.5 1.2.5 1 .7 1 1 1 1 1.5 2.3 1.3 2.7.7 3.3.5 3.5v4" class="st2"/><path d="m344.8 291-1-8.7-1-9.5-.8-11.8-.2-6.2v-13.3l.2-6.5.8-6.5.7-6 1.3-5.7 1.5-5.3 1.7-4.7 2-4.5 4-8.3 4-7.5 4.3-7.5 4-7.2 3.7-7.5 1.8-4.3 1.5-4.2 1.5-4.3 1.2-4.7 1-4.8 1-5.7.8-6.5.5-7.3.5-7.7-.3-8.3-.5-8.2-.5-4.3-.5-4" class="st2"/><path d="m466.5 310.8 4.3 3.7 4 3.8 4 4 3.7 4.2 3.8 4.3 3.2 4.5 3.3 4.7 3 5 3.2 5.8 2.8 6.2 2.5 6.3 2 6.7 1.5 6.8 1.2 7 .8 7.2.2 7.5m-192 0 .3-6 .2-5.7.8-5.8.7-5.5 1.3-5.2 1.5-5 1.5-5 2-4.8 2-4.5 2.2-4.5 2.8-4.2 2.7-4.3 2.8-4.2 3.2-4 3.5-3.8 3.5-4m161 78.3h83v358.2H236.5V400.3H318z" style="fill:none;stroke:#231f20;stroke-linecap:round;stroke-miterlimit:10;stroke-width:21"/></svg>